<?xml version="1.0" encoding="UTF-8"?>
<svg width="39" height="24" viewBox="0 0 39 24" fill="none" xmlns="http://www.w3.org/2000/svg">
<path d="M17.0565 23.4144C15.5857 23.2968 14.3754 23.1034 12.0136 22.5907C10.1309 22.1789 7.52546 21.1619 5.58396 20.0861C4.50814 19.481 2.76835 18.3379 2.07915 17.7832C1.33113 17.1697 0.255318 16.1107 0.112436 15.8417C-0.0388499 15.5475 -0.0388519 14.9928 0.120839 14.6818C0.415007 14.1103 1.69254 13.48 4.55017 12.4966C8.16423 11.2359 9.08876 10.7988 9.97126 9.89951C10.484 9.37841 10.9546 8.52112 11.1311 7.7815C11.2908 7.09231 11.2908 6.79814 11.1227 6.11735C10.7277 4.50363 9.36611 3.12525 7.75239 2.70501C5.86972 2.20912 3.7433 3.38579 2.70951 5.5038L2.30609 6.31907L1.82701 6.34428L1.34794 6.3695L1.28911 6.06693C1.18825 5.5038 1.70934 4.05818 2.35651 3.10844C2.76835 2.5117 3.5668 1.77208 4.19716 1.39386C5.78567 0.452523 7.97932 0.242404 9.82838 0.864359C11.005 1.25938 11.8623 1.90655 12.8121 3.12525C13.9972 4.63811 15.2663 5.3273 17.4851 5.64669C18.6198 5.80638 19.5695 5.80638 20.5865 5.64669C22.6037 5.3189 23.4862 4.91547 24.5368 3.81444C26.2513 2.01582 26.6212 1.67122 27.1338 1.36865C28.9745 0.292833 31.5548 0.208785 33.5215 1.15853C34.093 1.43588 34.3704 1.646 34.9587 2.23434C35.774 3.0412 36.1774 3.67996 36.606 4.7894C36.9002 5.55423 36.9675 6.14257 36.8078 6.45355C36.6985 6.64686 36.0934 6.68048 35.8496 6.50397C35.774 6.44514 35.5639 6.07533 35.3874 5.6803C35.2108 5.28528 34.9419 4.77259 34.7906 4.54566C33.7484 3.03279 31.9834 2.29317 30.4201 2.70501C27.386 3.50346 25.9488 6.78133 27.5625 9.20191C28.4534 10.5383 29.3443 11.0173 33.5299 12.4714C35.8916 13.2866 37.1692 13.875 37.6987 14.3877C38.0433 14.7071 38.0685 14.7659 38.0685 15.1693C38.0685 15.7745 37.9844 15.9342 37.3036 16.657C35.3033 18.7666 30.8908 21.2544 27.3356 22.2798C23.7299 23.322 20.4688 23.6834 17.0565 23.4144ZM16.132 19.5986C16.3169 19.4053 16.3169 19.3885 16.1824 19.1784C15.9807 18.8674 15.821 18.8338 15.5773 19.0523C15.3251 19.2961 15.3251 19.4137 15.5604 19.6407C15.7958 19.8592 15.8966 19.8508 16.132 19.5986ZM22.57 19.5986C22.7634 19.3969 22.7802 19.3633 22.6709 19.2036C22.4608 18.8926 22.3095 18.8422 22.0658 18.9935C21.7884 19.1784 21.78 19.4978 22.0321 19.6743C22.2843 19.8508 22.3263 19.8424 22.57 19.5986Z" fill="#36C58C"/>
<path d="M5.39908 10.2357C4.5418 9.94154 3.97868 9.41204 3.54163 8.48751C3.33151 8.04206 3.3147 7.91599 3.3147 6.94944C3.3147 5.94086 3.3231 5.87362 3.58365 5.33571C3.90303 4.65493 4.44094 4.10861 5.10492 3.78083C5.55878 3.5623 5.64282 3.54549 6.71864 3.54549C7.68519 3.54549 7.90371 3.57071 8.18948 3.71359C8.49205 3.86488 8.52567 3.9153 8.55088 4.21788C8.56769 4.52045 8.54248 4.56247 8.29874 4.68855C8.055 4.80621 7.64317 5.27688 7.64317 5.43657C7.64317 5.55424 8.02979 6.05853 8.24831 6.21822C8.53407 6.43674 8.81143 6.3611 9.16443 5.98288C9.38296 5.74755 9.50903 5.68872 9.75277 5.68872C10.0469 5.68872 10.0637 5.70553 10.1646 6.06693C10.3075 6.58803 10.2318 7.78991 10.0133 8.36144C9.66032 9.28597 8.91229 9.98356 7.97936 10.2609C7.349 10.4458 5.97061 10.4374 5.39908 10.2357Z" fill="#36C58C"/>
<path d="M30.1595 10.2021C29.3022 9.95837 28.4954 9.28598 28.0835 8.46231C27.8818 8.05048 27.8566 7.88238 27.823 7.01669C27.7894 5.87364 27.9575 5.21806 28.4281 4.62132C29.1341 3.73882 29.8233 3.41103 31.0841 3.3606C31.8573 3.33539 32.0422 3.3522 32.5213 3.5203C33.0592 3.71361 33.0676 3.72201 33.0928 4.0498C33.1096 4.36077 33.0928 4.39439 32.7986 4.55408C32.6137 4.64654 32.412 4.85666 32.3112 5.03316C32.1515 5.34414 32.1515 5.35254 32.2943 5.6299C32.3784 5.78959 32.5969 5.99971 32.7818 6.10057L33.1096 6.28547L33.4122 6.10897C33.5719 6.00811 33.7652 5.83161 33.8408 5.72235C33.9333 5.57947 34.0509 5.52064 34.2443 5.52064C34.4796 5.52064 34.5384 5.56266 34.6141 5.77278C34.7654 6.22664 34.8074 6.97467 34.7065 7.53779C34.4964 8.68084 33.866 9.53813 32.8743 10.0004C32.37 10.2357 32.2187 10.2693 31.4287 10.2862C30.8991 10.303 30.3949 10.2693 30.1595 10.2021Z" fill="#36C58C"/>
</svg>